<svg id="svg" version="1.1" xmlns="http://www.w3.org/2000/svg" xmlns:xlink="http://www.w3.org/1999/xlink" width="400" height="400" viewBox="0, 0, 400,400"><g id="svgg"><path id="path0" d="M23.467 87.467 C 23.320 87.613,23.200 128.113,23.200 177.467 L 23.200 267.200 176.357 267.200 C 315.648 267.200,329.536 267.143,329.757 266.567 C 330.075 265.740,330.075 88.660,329.757 87.833 C 329.504 87.172,24.126 86.807,23.467 87.467 M315.000 177.200 L 315.000 253.000 176.800 253.000 L 38.600 253.000 38.487 178.400 C 38.425 137.370,38.478 103.215,38.605 102.499 L 38.836 101.199 176.918 101.299 L 315.000 101.400 315.000 177.200 M70.667 111.867 C 70.520 112.013,70.400 113.087,70.400 114.253 C 70.400 116.138,69.804 118.211,68.749 120.000 C 68.554 120.330,68.273 120.862,68.123 121.183 C 67.789 121.898,66.538 123.432,65.185 124.785 C 61.355 128.615,57.953 130.052,52.100 130.312 L 47.600 130.512 47.600 177.635 L 47.600 224.758 48.799 224.341 C 50.703 223.677,55.654 224.416,58.660 225.814 C 59.354 226.136,60.119 226.400,60.360 226.400 C 60.602 226.400,60.800 226.580,60.800 226.800 C 60.800 227.020,61.074 227.200,61.408 227.200 C 63.992 227.200,69.996 235.892,70.320 240.100 C 70.457 241.886,70.642 242.400,71.148 242.401 C 122.828 242.491,282.963 242.346,283.184 242.210 C 283.358 242.102,283.583 241.066,283.684 239.907 C 284.220 233.775,292.433 224.800,297.508 224.800 C 297.973 224.800,298.464 224.620,298.600 224.400 C 298.736 224.180,300.262 224.000,301.991 224.000 C 303.720 224.000,305.374 223.908,305.667 223.796 C 306.108 223.626,306.166 215.585,306.000 177.096 L 305.800 130.600 301.802 130.315 C 299.603 130.159,297.353 129.825,296.802 129.573 C 289.944 126.441,286.321 122.503,284.211 115.886 C 283.875 114.833,283.600 113.438,283.600 112.786 L 283.600 111.600 177.267 111.600 C 118.783 111.600,70.813 111.720,70.667 111.867 M339.478 116.290 C 339.378 116.461,339.266 152.414,339.229 196.186 C 339.192 239.958,339.112 275.822,339.051 275.882 C 338.990 275.943,273.884 276.039,194.370 276.096 L 49.800 276.200 49.800 282.800 L 49.800 289.400 201.200 289.400 L 352.600 289.400 352.600 202.800 L 352.600 116.200 346.130 116.090 C 342.571 116.030,339.578 116.120,339.478 116.290 M185.753 127.129 C 187.487 127.358,189.098 127.738,189.333 127.973 C 189.568 128.208,190.219 128.401,190.780 128.402 C 191.341 128.404,192.316 128.674,192.946 129.002 C 193.576 129.331,194.396 129.600,194.769 129.600 C 195.142 129.600,195.796 129.864,196.224 130.187 C 196.651 130.510,197.293 130.780,197.651 130.787 C 198.009 130.794,198.526 131.070,198.800 131.400 C 199.074 131.730,199.528 132.000,199.810 132.000 C 200.091 132.000,202.004 133.124,204.061 134.498 C 212.427 140.087,218.002 146.276,221.991 154.400 C 222.693 155.830,223.522 157.510,223.834 158.132 C 224.145 158.755,224.400 159.574,224.400 159.952 C 224.400 160.331,224.578 160.818,224.796 161.036 C 225.218 161.458,225.811 163.872,226.459 167.800 C 226.677 169.120,227.038 171.100,227.263 172.200 C 227.905 175.351,226.974 187.986,226.030 188.930 C 225.793 189.167,225.600 189.858,225.600 190.466 C 225.600 191.517,225.006 193.216,223.761 195.732 C 223.452 196.355,223.200 197.188,223.200 197.583 C 223.200 197.979,222.930 198.526,222.600 198.800 C 222.270 199.074,222.000 199.625,222.000 200.025 C 222.000 200.425,221.839 200.853,221.641 200.974 C 221.444 201.096,220.885 201.962,220.398 202.898 C 219.911 203.834,219.397 204.690,219.256 204.800 C 219.115 204.910,218.332 205.990,217.516 207.200 C 213.325 213.412,198.943 224.332,194.847 224.413 C 194.491 224.420,193.851 224.690,193.424 225.013 C 192.996 225.336,192.253 225.600,191.772 225.600 C 191.291 225.600,190.251 225.870,189.462 226.200 C 188.672 226.530,187.246 226.800,186.293 226.800 C 185.340 226.800,184.388 226.972,184.177 227.183 C 183.586 227.774,174.530 228.103,171.600 227.641 C 165.321 226.650,164.270 226.430,163.867 226.027 C 163.632 225.792,162.880 225.600,162.196 225.600 C 161.513 225.600,160.604 225.336,160.176 225.013 C 159.749 224.690,159.100 224.420,158.732 224.413 C 158.365 224.406,157.555 224.146,156.932 223.835 C 156.310 223.524,155.083 222.939,154.206 222.535 C 152.461 221.730,148.718 219.581,148.400 219.201 C 148.290 219.070,147.030 218.087,145.600 217.017 C 143.049 215.108,136.400 208.507,136.400 207.883 C 136.400 207.593,136.203 207.315,134.986 205.886 C 133.664 204.334,130.298 197.890,129.092 194.600 C 127.040 189.004,126.041 183.244,126.041 177.000 C 126.041 172.075,127.208 163.835,128.021 163.020 C 128.229 162.811,128.400 162.298,128.400 161.880 C 128.400 161.463,128.689 160.464,129.043 159.660 C 129.397 158.857,129.964 157.570,130.304 156.800 C 131.307 154.526,133.253 150.748,133.600 150.400 C 133.710 150.290,134.520 149.120,135.400 147.800 C 137.269 144.995,144.273 137.600,145.060 137.600 C 145.357 137.600,145.600 137.450,145.600 137.266 C 145.600 136.933,148.390 134.940,151.400 133.124 C 152.280 132.593,154.440 131.565,156.200 130.838 C 162.733 128.142,165.790 127.197,168.000 127.192 C 168.990 127.190,170.070 127.008,170.400 126.789 C 171.124 126.308,181.227 126.531,185.753 127.129 M177.200 137.506 C 173.150 137.671,172.799 137.980,172.806 141.368 C 172.809 142.925,172.965 144.441,173.152 144.736 C 173.671 145.555,172.731 147.194,171.600 147.442 C 166.597 148.542,160.436 153.101,158.955 156.800 C 158.822 157.130,158.448 158.001,158.122 158.735 C 155.718 164.150,159.330 173.845,164.864 176.834 C 167.891 178.469,171.940 180.400,172.342 180.400 C 172.594 180.400,172.800 180.580,172.800 180.800 C 172.800 181.020,173.088 181.200,173.440 181.200 C 174.143 181.200,176.017 181.964,181.369 184.431 C 190.689 188.726,186.888 199.475,176.330 198.681 C 173.442 198.464,170.964 197.939,169.800 197.299 C 169.360 197.056,168.730 196.748,168.400 196.614 C 166.881 195.994,162.800 193.176,162.800 192.747 C 162.800 192.164,161.656 192.360,160.805 193.089 C 160.362 193.468,160.000 193.976,160.000 194.219 C 160.000 194.462,159.539 195.094,158.975 195.623 C 155.790 198.616,155.853 199.892,159.314 202.406 C 161.472 203.974,162.534 204.581,165.600 205.994 C 166.341 206.336,170.210 207.472,171.700 207.784 L 172.800 208.015 172.800 211.719 C 172.800 216.728,173.139 217.202,176.723 217.195 C 181.336 217.185,181.156 217.371,181.287 212.466 L 181.400 208.218 182.600 207.855 C 192.072 204.996,197.200 198.935,197.200 190.600 C 197.200 183.001,193.225 178.539,182.600 174.213 C 181.720 173.854,180.687 173.390,180.305 173.181 C 179.923 172.971,179.383 172.799,179.105 172.798 C 178.827 172.796,178.138 172.554,177.573 172.259 C 177.009 171.965,176.064 171.602,175.473 171.454 C 174.883 171.306,174.400 171.008,174.400 170.792 C 174.400 170.577,174.125 170.400,173.790 170.400 C 171.720 170.400,167.600 165.741,167.600 163.400 C 167.600 161.172,170.735 157.200,172.493 157.200 C 172.794 157.200,173.239 157.001,173.483 156.757 C 175.185 155.055,184.472 156.554,187.600 159.037 C 187.930 159.298,188.906 159.886,189.768 160.342 L 191.336 161.172 192.424 159.686 C 194.802 156.438,195.992 153.553,195.260 152.811 C 194.410 151.947,190.866 149.600,190.412 149.600 C 190.221 149.600,189.555 149.343,188.932 149.028 C 187.420 148.264,183.731 147.200,182.597 147.200 C 181.368 147.200,181.200 146.581,181.200 142.064 C 181.200 137.475,181.088 137.347,177.200 137.506 M362.410 218.843 C 362.395 262.657,362.286 298.661,362.168 298.852 C 362.047 299.048,298.783 299.200,217.376 299.200 L 72.800 299.200 72.800 306.195 L 72.800 313.190 224.192 313.197 L 375.583 313.205 375.801 312.303 C 375.921 311.806,375.969 272.700,375.909 225.400 L 375.800 139.400 369.119 139.290 L 362.438 139.181 362.410 218.843 " stroke="none" fill="#191919" fill-rule="evenodd"></path><path id="path1" d="M0.000 200.000 L 0.000 400.000 200.000 400.000 L 400.000 400.000 400.000 200.000 L 400.000 0.000 200.000 0.000 L 0.000 0.000 0.000 200.000 M330.400 86.800 C 331.400 87.800,331.697 265.973,330.700 267.326 C 330.231 267.962,320.647 267.998,176.400 267.902 L 22.600 267.800 22.499 177.442 C 22.425 110.983,22.517 86.941,22.848 86.542 C 23.709 85.505,329.362 85.762,330.400 86.800 M39.443 102.633 C 39.309 102.981,39.200 136.821,39.200 177.833 L 39.200 252.400 176.798 252.400 L 314.396 252.400 314.498 177.600 C 314.554 136.460,314.540 102.620,314.467 102.400 C 314.212 101.637,39.736 101.869,39.443 102.633 M283.957 111.300 C 284.692 113.243,285.200 115.092,285.202 115.828 C 285.206 118.017,289.252 124.137,291.700 125.657 C 292.525 126.170,293.200 126.705,293.200 126.848 C 293.200 126.990,293.515 127.212,293.900 127.342 C 294.285 127.471,294.870 127.737,295.200 127.932 C 296.811 128.887,300.178 129.600,303.074 129.600 C 305.003 129.600,306.428 129.788,306.720 130.080 C 307.088 130.448,307.200 141.509,307.200 177.431 C 307.200 228.781,307.356 225.631,304.849 224.757 C 303.110 224.151,298.491 224.924,295.938 226.249 C 295.354 226.552,294.672 226.800,294.421 226.800 C 293.240 226.800,287.158 232.949,286.114 235.200 C 285.066 237.459,284.000 241.000,284.000 242.222 C 284.000 242.734,283.836 243.254,283.636 243.378 C 283.194 243.651,70.866 243.688,70.425 243.415 C 70.254 243.310,70.003 242.287,69.868 241.142 C 69.732 239.998,69.436 238.876,69.211 238.651 C 68.985 238.425,68.800 237.922,68.800 237.532 C 68.800 235.317,63.415 228.929,60.400 227.568 C 59.630 227.220,58.312 226.600,57.470 226.189 C 56.276 225.606,54.960 225.433,51.470 225.401 L 47.000 225.359 47.000 177.579 L 47.000 129.800 51.000 129.691 C 53.475 129.623,55.481 129.356,56.260 128.991 C 56.954 128.666,57.877 128.400,58.311 128.400 C 58.746 128.400,59.326 128.130,59.600 127.800 C 59.874 127.470,60.345 127.200,60.646 127.200 C 61.469 127.200,65.924 123.243,66.534 121.969 C 66.684 121.656,67.187 120.770,67.652 120.000 C 68.799 118.098,70.000 114.220,70.000 112.415 C 70.000 111.600,70.120 110.813,70.267 110.667 C 70.413 110.520,118.477 110.400,177.075 110.400 L 283.617 110.400 283.957 111.300 M353.144 115.700 C 353.747 117.376,353.440 289.429,352.832 290.161 C 352.018 291.142,50.401 291.143,49.419 290.162 C 48.876 289.619,48.798 288.508,48.891 282.662 L 49.000 275.800 52.000 275.563 C 53.650 275.433,118.697 275.295,196.549 275.257 C 274.401 275.218,338.256 275.089,338.449 274.970 C 338.649 274.846,338.800 240.373,338.800 195.043 C 338.800 151.203,338.920 115.213,339.067 115.067 C 339.912 114.221,352.820 114.802,353.144 115.700 M168.412 127.898 C 167.209 127.980,166.039 128.197,165.812 128.379 C 165.585 128.561,164.636 128.836,163.702 128.990 C 162.768 129.144,161.903 129.434,161.778 129.635 C 161.654 129.836,161.186 130.000,160.738 130.000 C 160.290 130.000,159.446 130.243,158.862 130.539 C 158.278 130.836,157.080 131.391,156.200 131.774 C 154.373 132.568,152.726 133.382,151.012 134.338 C 149.864 134.978,149.315 135.353,148.286 136.201 C 148.019 136.421,147.128 137.051,146.307 137.601 C 143.758 139.307,136.283 147.277,135.798 148.806 C 135.660 149.243,135.410 149.600,135.244 149.600 C 135.078 149.600,134.543 150.365,134.056 151.300 C 133.569 152.235,132.997 153.270,132.787 153.600 C 132.023 154.795,130.000 159.544,130.000 160.141 C 130.000 160.478,129.840 160.851,129.645 160.972 C 129.450 161.093,129.168 161.845,129.018 162.645 C 128.868 163.444,128.591 164.391,128.402 164.749 C 126.666 168.037,126.674 185.320,128.412 189.400 C 128.600 189.840,128.877 190.824,129.028 191.587 C 129.178 192.350,129.432 193.250,129.592 193.587 C 129.752 193.924,130.194 194.920,130.576 195.800 C 130.957 196.680,131.524 197.910,131.835 198.532 C 132.146 199.155,132.400 199.828,132.400 200.029 C 132.400 200.229,133.210 201.575,134.200 203.021 C 135.190 204.467,136.000 205.822,136.000 206.032 C 136.000 206.744,147.502 218.000,148.230 218.000 C 148.353 218.000,149.026 218.428,149.727 218.951 C 151.562 220.322,156.396 222.800,157.237 222.800 C 157.631 222.800,158.048 222.954,158.164 223.142 C 158.361 223.460,161.232 224.472,165.000 225.552 C 170.806 227.215,185.576 227.212,188.200 225.546 C 188.420 225.407,189.364 225.166,190.298 225.011 C 191.232 224.857,192.097 224.566,192.222 224.365 C 192.346 224.164,192.724 224.000,193.063 224.000 C 193.629 224.000,194.506 223.669,197.800 222.209 C 198.460 221.917,199.270 221.568,199.600 221.434 C 199.930 221.301,200.740 220.835,201.400 220.400 C 202.060 219.965,202.870 219.485,203.200 219.333 C 204.397 218.783,209.848 214.457,211.800 212.508 C 215.261 209.054,218.549 204.768,219.932 201.909 C 220.435 200.869,221.016 199.913,221.224 199.785 C 221.431 199.657,221.600 199.225,221.600 198.825 C 221.600 198.425,221.870 197.874,222.200 197.600 C 222.530 197.326,222.806 196.719,222.813 196.251 C 222.820 195.783,223.090 195.051,223.413 194.624 C 223.736 194.196,224.000 193.442,224.000 192.947 C 224.000 192.452,224.163 191.946,224.363 191.823 C 224.562 191.700,224.852 190.654,225.007 189.500 C 225.163 188.345,225.448 187.204,225.641 186.964 C 226.803 185.521,226.412 170.758,225.070 165.400 C 223.850 160.528,223.653 159.893,223.231 159.471 C 222.994 159.234,222.800 158.734,222.800 158.361 C 222.800 157.697,220.671 153.385,219.166 151.000 C 218.750 150.340,218.285 149.530,218.134 149.200 C 217.982 148.870,217.749 148.510,217.616 148.400 C 217.482 148.290,216.670 147.300,215.811 146.200 C 214.117 144.031,208.132 138.000,207.674 138.000 C 207.519 138.000,206.944 137.586,206.396 137.079 C 205.848 136.573,205.130 136.031,204.800 135.875 C 204.470 135.719,203.660 135.236,203.000 134.802 C 202.340 134.367,201.412 133.840,200.939 133.631 C 200.465 133.421,199.960 133.058,199.815 132.825 C 199.671 132.591,199.239 132.400,198.856 132.400 C 198.473 132.400,197.950 132.190,197.693 131.933 C 197.242 131.482,195.054 130.569,193.400 130.140 C 192.960 130.026,192.240 129.771,191.800 129.574 C 188.200 127.956,178.110 127.233,168.412 127.898 M181.024 136.966 C 181.685 137.449,181.830 138.177,182.000 141.866 L 182.200 146.200 183.800 146.525 C 191.754 148.140,198.782 153.057,196.200 155.200 C 195.870 155.474,195.600 155.853,195.600 156.043 C 195.600 156.528,193.226 160.424,192.292 161.471 C 191.442 162.424,190.886 162.350,189.008 161.035 C 186.249 159.102,183.877 157.993,181.890 157.709 C 181.060 157.589,180.284 157.336,180.167 157.146 C 179.870 156.665,177.577 156.714,175.306 157.249 C 166.639 159.292,166.371 166.057,174.800 170.030 C 176.230 170.704,177.713 171.423,178.095 171.627 C 178.477 171.832,178.989 172.000,179.234 172.000 C 179.479 172.000,180.336 172.283,181.140 172.630 C 181.943 172.976,183.140 173.490,183.800 173.773 C 188.254 175.678,191.843 177.865,194.015 179.996 C 194.988 180.951,196.800 183.509,196.800 183.928 C 196.800 184.137,197.069 184.824,197.398 185.454 C 198.228 187.047,198.220 194.675,197.387 195.776 C 197.064 196.204,196.800 196.946,196.800 197.427 C 196.800 197.908,196.530 198.526,196.200 198.800 C 195.870 199.074,195.600 199.544,195.600 199.846 C 195.600 200.568,190.789 205.459,189.560 205.986 C 189.032 206.213,188.330 206.558,188.000 206.753 C 186.586 207.588,185.126 208.138,183.712 208.367 L 182.200 208.611 182.000 212.981 L 181.800 217.352 180.400 217.714 C 178.500 218.205,173.351 217.911,172.713 217.274 C 172.381 216.943,172.152 215.284,172.064 212.581 L 171.927 208.400 170.524 208.400 C 169.752 208.400,168.464 208.117,167.660 207.770 C 164.580 206.442,163.379 205.900,162.800 205.577 C 162.470 205.392,161.529 204.877,160.709 204.432 C 158.546 203.257,155.200 200.250,155.200 199.481 C 155.200 198.958,158.888 194.000,159.277 194.000 C 159.455 194.000,159.600 193.789,159.600 193.531 C 159.600 191.575,161.927 191.158,163.942 192.754 C 164.744 193.389,166.166 194.308,167.102 194.796 C 168.038 195.284,168.904 195.844,169.026 196.041 C 169.147 196.239,169.569 196.400,169.962 196.400 C 170.355 196.400,171.248 196.685,171.945 197.032 C 175.988 199.049,182.877 197.481,185.324 193.987 C 186.770 191.922,185.101 186.400,183.031 186.400 C 182.721 186.400,182.407 186.265,182.333 186.100 C 182.132 185.647,180.224 184.765,172.200 181.415 C 165.043 178.427,158.412 173.493,158.403 171.149 C 158.401 170.791,158.149 170.290,157.842 170.035 C 156.787 169.159,156.271 162.488,157.006 159.211 C 157.723 156.009,162.447 150.307,165.666 148.758 C 168.648 147.323,170.076 146.800,171.014 146.800 C 172.130 146.800,172.113 146.879,172.005 142.083 C 171.900 137.404,172.300 136.878,176.098 136.697 C 177.694 136.621,179.281 136.523,179.624 136.479 C 179.966 136.436,180.596 136.655,181.024 136.966 M376.469 138.662 C 377.173 139.299,377.200 142.552,377.200 226.454 L 377.200 313.585 376.300 313.802 C 375.805 313.921,307.180 313.969,223.800 313.909 L 72.200 313.800 72.091 306.429 C 72.007 300.800,72.102 298.982,72.491 298.735 C 72.771 298.558,137.935 298.409,217.300 298.406 L 361.600 298.400 361.669 224.500 C 361.754 134.494,361.729 139.109,362.124 138.500 C 362.668 137.658,375.520 137.804,376.469 138.662 " stroke="none" fill="#ececec" fill-rule="evenodd"></path><path id="path2" d="M49.300 86.676 C 49.685 86.776,50.315 86.776,50.700 86.676 C 51.085 86.575,50.770 86.493,50.000 86.493 C 49.230 86.493,48.915 86.575,49.300 86.676 M76.900 86.676 C 77.285 86.776,77.915 86.776,78.300 86.676 C 78.685 86.575,78.370 86.493,77.600 86.493 C 76.830 86.493,76.515 86.575,76.900 86.676 M149.300 86.676 C 149.685 86.776,150.315 86.776,150.700 86.676 C 151.085 86.575,150.770 86.493,150.000 86.493 C 149.230 86.493,148.915 86.575,149.300 86.676 M176.900 86.676 C 177.285 86.776,177.915 86.776,178.300 86.676 C 178.685 86.575,178.370 86.493,177.600 86.493 C 176.830 86.493,176.515 86.575,176.900 86.676 M221.700 86.676 C 222.085 86.776,222.715 86.776,223.100 86.676 C 223.485 86.575,223.170 86.493,222.400 86.493 C 221.630 86.493,221.315 86.575,221.700 86.676 M249.300 86.676 C 249.685 86.776,250.315 86.776,250.700 86.676 C 251.085 86.575,250.770 86.493,250.000 86.493 C 249.230 86.493,248.915 86.575,249.300 86.676 M276.900 86.676 C 277.285 86.776,277.915 86.776,278.300 86.676 C 278.685 86.575,278.370 86.493,277.600 86.493 C 276.830 86.493,276.515 86.575,276.900 86.676 M321.700 86.676 C 322.085 86.776,322.715 86.776,323.100 86.676 C 323.485 86.575,323.170 86.493,322.400 86.493 C 321.630 86.493,321.315 86.575,321.700 86.676 M330.596 177.000 C 330.596 226.060,330.643 246.189,330.700 221.732 C 330.757 197.275,330.757 157.135,330.700 132.532 C 330.643 107.929,330.596 127.940,330.596 177.000 M39.280 101.680 C 39.016 101.944,38.800 102.338,38.800 102.556 C 38.800 102.775,39.025 102.647,39.300 102.274 C 39.769 101.637,48.342 101.601,177.262 101.697 C 252.866 101.754,314.640 101.665,314.538 101.500 C 314.201 100.954,39.826 101.134,39.280 101.680 M70.159 111.762 C 70.041 112.071,70.007 112.926,70.083 113.662 C 70.206 114.835,70.247 114.766,70.415 113.100 C 70.611 111.152,70.539 110.774,70.159 111.762 M341.200 115.471 C 346.492 115.760,352.711 115.775,352.539 115.500 C 352.437 115.335,349.348 115.234,345.676 115.276 C 342.004 115.317,339.990 115.405,341.200 115.471 M352.996 202.800 C 352.996 250.430,353.043 269.915,353.100 246.100 C 353.157 222.285,353.157 183.315,353.100 159.500 C 353.043 135.685,352.996 155.170,352.996 202.800 M171.700 127.076 C 172.085 127.176,172.715 127.176,173.100 127.076 C 173.485 126.975,173.170 126.893,172.400 126.893 C 171.630 126.893,171.315 126.975,171.700 127.076 M338.996 201.400 C 338.996 241.220,339.043 257.451,339.100 237.468 C 339.157 217.486,339.157 184.906,339.100 165.068 C 339.043 145.231,338.996 161.580,338.996 201.400 M306.303 177.003 L 306.407 223.966 303.303 224.112 L 300.200 224.258 303.400 224.229 L 306.600 224.200 306.702 177.422 C 306.758 151.694,306.668 130.508,306.502 130.342 C 306.336 130.176,306.246 151.173,306.303 177.003 M172.542 141.800 C 172.541 143.780,172.608 144.640,172.692 143.712 C 172.776 142.784,172.777 141.164,172.695 140.112 C 172.612 139.060,172.543 139.820,172.542 141.800 M141.188 141.500 L 138.600 144.200 141.300 141.612 C 142.785 140.188,144.000 138.973,144.000 138.912 C 144.000 138.617,143.593 138.992,141.188 141.500 M376.302 225.895 C 376.383 295.344,376.302 313.022,375.902 313.306 C 375.529 313.570,375.554 313.619,376.000 313.497 C 376.654 313.319,377.153 139.793,376.501 139.141 C 376.335 138.975,376.246 178.015,376.302 225.895 M362.099 218.620 C 362.045 262.411,361.865 298.412,361.700 298.623 C 361.535 298.833,361.625 298.818,361.901 298.588 C 362.300 298.255,362.381 281.947,362.300 218.585 L 362.198 139.000 362.099 218.620 M212.200 141.600 C 213.059 142.480,213.852 143.200,213.962 143.200 C 214.072 143.200,213.459 142.480,212.600 141.600 C 211.741 140.720,210.948 140.000,210.838 140.000 C 210.728 140.000,211.341 140.720,212.200 141.600 M168.249 161.815 C 168.112 162.173,168.023 163.036,168.050 163.733 C 168.092 164.787,168.150 164.698,168.399 163.200 C 168.717 161.286,168.659 160.748,168.249 161.815 M156.924 163.800 C 156.926 165.120,157.001 165.612,157.090 164.893 C 157.179 164.174,157.177 163.094,157.086 162.493 C 156.995 161.892,156.922 162.480,156.924 163.800 M226.493 171.200 C 226.493 171.970,226.575 172.285,226.676 171.900 C 226.776 171.515,226.776 170.885,226.676 170.500 C 226.575 170.115,226.493 170.430,226.493 171.200 M226.940 177.600 C 226.940 179.470,227.009 180.235,227.093 179.300 C 227.177 178.365,227.177 176.835,227.093 175.900 C 227.009 174.965,226.940 175.730,226.940 177.600 M226.493 182.800 C 226.493 183.570,226.575 183.885,226.676 183.500 C 226.776 183.115,226.776 182.485,226.676 182.100 C 226.575 181.715,226.493 182.030,226.493 182.800 M172.398 212.318 L 172.595 216.600 172.713 212.635 C 172.778 210.455,172.689 208.528,172.515 208.354 C 172.342 208.179,172.289 209.963,172.398 212.318 M175.712 217.495 C 176.764 217.577,178.384 217.576,179.312 217.492 C 180.240 217.408,179.380 217.341,177.400 217.342 C 175.420 217.343,174.660 217.412,175.712 217.495 M172.700 227.482 C 173.195 227.578,174.005 227.578,174.500 227.482 C 174.995 227.387,174.590 227.309,173.600 227.309 C 172.610 227.309,172.205 227.387,172.700 227.482 M64.783 230.500 C 65.764 231.545,66.619 232.400,66.683 232.400 C 66.984 232.400,66.666 232.041,64.900 230.383 L 63.000 228.600 64.783 230.500 M70.101 241.000 C 70.105 241.880,70.187 242.193,70.283 241.695 C 70.379 241.198,70.375 240.478,70.275 240.095 C 70.175 239.713,70.096 240.120,70.101 241.000 M283.646 241.251 C 283.620 241.839,283.203 242.594,282.700 242.963 L 281.800 243.623 282.723 243.185 C 283.780 242.684,284.149 241.962,283.880 240.923 C 283.752 240.429,283.678 240.532,283.646 241.251 M124.668 243.100 C 153.305 243.157,200.285 243.157,229.068 243.100 C 257.851 243.043,234.420 242.997,177.000 242.997 C 119.580 242.997,96.031 243.043,124.668 243.100 M49.445 275.928 C 49.333 276.108,49.773 276.177,50.421 276.082 C 51.070 275.987,51.600 275.840,51.600 275.755 C 51.600 275.450,49.643 275.607,49.445 275.928 M124.100 275.900 C 163.425 275.956,227.775 275.956,267.100 275.900 C 306.425 275.844,274.250 275.798,195.600 275.798 C 116.950 275.798,84.775 275.844,124.100 275.900 M125.700 290.300 C 165.905 290.356,231.695 290.356,271.900 290.300 C 312.105 290.244,279.210 290.198,198.800 290.198 C 118.390 290.198,85.495 290.244,125.700 290.300 M73.700 299.087 C 74.305 299.178,75.295 299.178,75.900 299.087 C 76.505 298.995,76.010 298.920,74.800 298.920 C 73.590 298.920,73.095 298.995,73.700 299.087 " stroke="none" fill="#7c7c7c" fill-rule="evenodd"></path><path id="path3" d="M22.848 86.542 C 22.517 86.941,22.425 110.983,22.499 177.442 L 22.600 267.800 176.400 267.902 C 320.647 267.998,330.231 267.962,330.700 267.326 C 331.697 265.973,331.400 87.800,330.400 86.800 C 329.362 85.762,23.709 85.505,22.848 86.542 M330.253 87.405 C 330.930 88.331,331.085 264.799,330.410 266.574 L 330.020 267.600 176.410 267.600 L 22.800 267.600 22.800 177.633 C 22.800 128.151,22.892 87.426,23.004 87.133 C 23.382 86.149,329.533 86.420,330.253 87.405 M39.213 102.375 C 38.929 102.906,38.830 126.786,38.899 177.876 L 39.000 252.600 176.800 252.600 L 314.600 252.600 314.602 177.900 L 314.603 103.200 314.501 177.800 L 314.398 252.400 176.799 252.400 L 39.200 252.400 39.200 177.833 C 39.200 136.821,39.309 102.981,39.443 102.633 C 39.739 101.860,314.154 101.638,314.537 102.410 C 314.649 102.636,314.694 102.591,314.637 102.310 C 314.436 101.321,39.743 101.386,39.213 102.375 M70.267 110.667 C 70.120 110.813,70.000 111.038,70.000 111.167 C 70.000 111.295,118.091 111.400,176.869 111.400 L 283.738 111.400 284.347 113.966 C 284.682 115.378,285.033 116.302,285.127 116.020 C 285.289 115.534,284.732 113.268,283.967 111.300 L 283.617 110.400 177.075 110.400 C 118.477 110.400,70.413 110.520,70.267 110.667 M69.281 116.045 C 68.997 116.955,68.845 117.778,68.943 117.876 C 69.188 118.121,70.096 115.288,69.931 114.792 C 69.857 114.572,69.565 115.136,69.281 116.045 M338.938 115.417 C 338.808 115.757,338.813 116.147,338.951 116.284 C 339.088 116.421,339.200 116.233,339.200 115.867 C 339.200 115.271,339.906 115.200,345.787 115.200 L 352.374 115.200 352.971 116.300 C 353.658 117.566,353.780 117.325,353.210 115.826 L 352.820 114.800 345.997 114.800 C 340.217 114.800,339.139 114.894,338.938 115.417 M285.214 117.162 C 285.196 117.899,287.703 122.350,288.785 123.500 C 290.195 125.000,290.081 124.513,288.552 122.510 C 287.759 121.471,286.686 119.716,286.169 118.610 C 285.651 117.505,285.222 116.853,285.214 117.162 M338.960 123.400 C 338.961 126.700,339.022 127.997,339.098 126.282 C 339.173 124.567,339.172 121.867,339.097 120.282 C 339.021 118.697,338.959 120.100,338.960 123.400 M67.842 119.769 C 67.477 120.537,67.003 121.274,66.789 121.407 C 66.575 121.539,66.400 121.827,66.400 122.047 C 66.400 122.798,67.210 121.948,68.034 120.334 C 68.486 119.448,68.777 118.643,68.680 118.547 C 68.584 118.450,68.206 119.000,67.842 119.769 M353.370 129.400 C 353.371 134.240,353.429 136.165,353.499 133.678 C 353.569 131.191,353.569 127.231,353.498 124.878 C 353.428 122.525,353.370 124.560,353.370 129.400 M65.164 123.517 C 64.050 124.818,63.733 125.492,64.545 124.833 C 65.185 124.313,66.196 122.800,65.903 122.800 C 65.834 122.800,65.501 123.123,65.164 123.517 M291.652 126.100 C 294.233 127.999,295.573 128.738,294.851 127.864 C 294.549 127.499,294.069 127.200,293.784 127.200 C 293.500 127.200,293.207 127.058,293.133 126.886 C 292.964 126.487,290.576 124.800,290.181 124.800 C 290.018 124.800,290.680 125.385,291.652 126.100 M62.500 125.977 C 62.005 126.390,61.600 126.836,61.600 126.968 C 61.600 127.366,63.170 126.255,63.380 125.709 C 63.629 125.060,63.583 125.074,62.500 125.977 M170.000 127.443 L 166.200 127.963 169.360 127.782 C 171.099 127.682,174.789 127.579,177.560 127.553 C 180.749 127.523,182.159 127.393,181.400 127.200 C 179.604 126.743,174.287 126.857,170.000 127.443 M183.700 127.887 C 184.305 127.978,185.295 127.978,185.900 127.887 C 186.505 127.795,186.010 127.720,184.800 127.720 C 183.590 127.720,183.095 127.795,183.700 127.887 M164.600 128.400 C 163.829 128.731,163.831 128.745,164.676 128.772 C 165.158 128.787,165.664 128.620,165.800 128.400 C 166.092 127.927,165.701 127.927,164.600 128.400 M187.600 128.400 C 187.930 128.613,188.560 128.778,189.000 128.766 L 189.800 128.744 189.000 128.400 C 187.804 127.886,186.805 127.886,187.600 128.400 M56.442 128.834 C 54.863 129.466,55.704 129.609,57.415 129.000 C 58.287 128.689,58.640 128.439,58.200 128.443 C 57.760 128.447,56.969 128.623,56.442 128.834 M297.000 129.012 C 297.880 129.329,298.780 129.576,299.000 129.561 C 299.710 129.515,297.028 128.436,296.200 128.436 C 295.760 128.435,296.120 128.695,297.000 129.012 M161.200 129.400 C 160.565 129.763,160.427 129.977,160.820 129.986 C 161.161 129.994,161.611 129.837,161.820 129.639 C 162.029 129.440,162.560 129.191,163.000 129.085 L 163.800 128.893 163.000 128.861 C 162.560 128.843,161.750 129.086,161.200 129.400 M190.600 129.085 C 191.040 129.191,191.571 129.440,191.780 129.639 C 191.989 129.837,192.439 129.994,192.780 129.986 C 193.173 129.977,193.035 129.763,192.400 129.400 C 191.850 129.086,191.040 128.843,190.600 128.861 L 189.800 128.893 190.600 129.085 M46.985 130.100 C 46.880 130.375,46.840 151.918,46.897 177.974 L 47.000 225.349 51.800 225.395 C 55.894 225.434,56.306 225.385,54.600 225.059 C 52.680 224.693,50.529 224.631,48.400 224.882 L 47.400 225.000 47.298 177.515 L 47.197 130.029 51.098 129.898 L 55.000 129.767 51.087 129.684 C 48.261 129.623,47.122 129.739,46.985 130.100 M303.200 129.975 L 306.600 130.200 306.600 177.196 L 306.600 224.192 305.400 224.411 C 304.223 224.627,304.218 224.636,305.179 224.899 C 305.718 225.046,306.393 224.972,306.679 224.734 C 307.413 224.125,307.453 130.813,306.720 130.080 C 306.412 129.772,305.084 129.627,303.020 129.675 L 299.800 129.749 303.200 129.975 M158.000 130.600 C 157.420 130.932,157.252 131.172,157.600 131.173 C 157.930 131.174,158.549 130.910,158.976 130.587 C 159.964 129.840,159.315 129.848,158.000 130.600 M194.800 130.600 C 195.350 130.914,195.980 131.172,196.200 131.172 C 196.420 131.172,196.150 130.914,195.600 130.600 C 195.050 130.286,194.420 130.028,194.200 130.028 C 193.980 130.028,194.250 130.286,194.800 130.600 M155.200 131.800 C 154.620 132.132,154.452 132.372,154.800 132.373 C 155.130 132.374,155.749 132.110,156.176 131.787 C 157.164 131.040,156.515 131.048,155.200 131.800 M197.661 131.818 C 198.024 132.189,198.540 132.420,198.806 132.331 C 199.073 132.242,198.775 131.939,198.145 131.656 C 197.073 131.176,197.042 131.186,197.661 131.818 M151.600 133.618 C 150.610 134.260,149.936 134.788,150.101 134.792 C 150.267 134.797,151.257 134.263,152.301 133.608 C 153.346 132.952,154.020 132.423,153.800 132.433 C 153.580 132.443,152.590 132.976,151.600 133.618 M146.592 136.986 C 145.056 138.160,142.450 140.529,140.800 142.249 C 137.025 146.186,137.376 145.965,141.883 141.570 C 143.817 139.684,145.940 137.796,146.600 137.376 C 147.260 136.955,148.022 136.399,148.293 136.141 C 148.564 135.883,149.014 135.590,149.293 135.490 C 149.572 135.391,149.706 135.206,149.592 135.080 C 149.477 134.954,148.127 135.811,146.592 136.986 M176.098 136.697 C 172.313 136.877,171.908 137.401,172.102 141.857 L 172.239 145.000 172.320 141.762 C 172.422 137.646,172.699 137.374,177.074 137.091 C 181.405 136.811,181.600 137.018,181.600 141.899 C 181.600 146.143,181.783 146.809,182.943 146.775 C 183.791 146.750,183.790 146.745,182.900 146.388 C 182.051 146.046,182.000 145.801,182.000 142.013 C 182.000 137.743,181.395 136.287,179.700 136.479 C 179.315 136.523,177.694 136.621,176.098 136.697 M207.133 137.496 C 208.530 138.550,214.412 144.372,215.925 146.200 C 217.145 147.673,217.178 147.689,216.338 146.400 C 214.983 144.318,209.207 138.490,207.600 137.583 C 206.568 137.001,206.445 136.978,207.133 137.496 M362.267 138.267 C 361.609 138.924,362.393 138.987,368.699 138.786 C 372.385 138.669,375.715 138.720,376.101 138.901 C 376.766 139.212,376.797 143.668,376.701 226.315 L 376.600 313.400 224.491 313.501 L 72.382 313.601 72.491 306.301 L 72.600 299.000 217.200 298.800 L 361.800 298.600 361.802 224.800 L 361.803 151.000 361.701 224.700 L 361.598 298.400 217.299 298.406 C 137.935 298.409,72.771 298.558,72.491 298.735 C 72.102 298.982,72.007 300.800,72.091 306.429 L 72.200 313.800 223.800 313.909 C 307.180 313.969,375.805 313.921,376.300 313.802 L 377.200 313.585 377.200 226.454 C 377.200 142.552,377.173 139.299,376.469 138.662 C 375.714 137.979,362.911 137.623,362.267 138.267 M361.701 141.000 C 361.705 141.880,361.787 142.193,361.883 141.695 C 361.979 141.198,361.975 140.478,361.875 140.095 C 361.775 139.713,361.696 140.120,361.701 141.000 M136.800 146.600 C 136.283 147.150,136.051 147.600,136.284 147.600 C 136.517 147.600,137.003 147.150,137.363 146.600 C 137.724 146.050,137.956 145.600,137.879 145.600 C 137.802 145.600,137.317 146.050,136.800 146.600 M168.800 147.442 C 168.136 147.849,168.069 147.962,168.600 147.778 C 169.040 147.626,169.940 147.362,170.600 147.191 C 171.698 146.908,171.715 146.880,170.800 146.855 C 170.250 146.840,169.350 147.104,168.800 147.442 M185.000 147.076 C 189.316 148.064,196.400 152.137,196.400 153.630 C 196.400 154.075,192.889 160.287,192.148 161.152 C 191.485 161.927,189.671 161.538,188.800 160.435 C 188.506 160.062,186.471 158.800,186.165 158.800 C 186.020 158.800,186.126 159.070,186.400 159.400 C 186.674 159.730,187.068 160.000,187.276 160.000 C 187.483 160.000,188.226 160.423,188.927 160.941 C 190.838 162.353,191.423 162.445,192.292 161.471 C 193.226 160.424,195.600 156.528,195.600 156.043 C 195.600 155.853,195.870 155.474,196.200 155.200 C 198.507 153.285,189.541 146.589,185.015 146.846 C 184.214 146.892,184.214 146.896,185.000 147.076 M135.037 149.071 C 133.982 150.518,132.317 153.699,132.757 153.427 C 132.955 153.304,133.504 152.462,133.976 151.556 C 134.449 150.649,135.097 149.645,135.418 149.325 C 135.738 149.005,136.000 148.576,136.000 148.371 C 136.000 147.828,135.881 147.914,135.037 149.071 M164.800 149.266 C 161.143 151.788,157.177 156.830,157.218 158.906 C 157.230 159.536,157.399 159.340,157.790 158.244 C 158.577 156.034,161.013 152.635,162.734 151.343 C 163.540 150.738,164.290 150.123,164.400 149.976 C 164.510 149.830,165.320 149.333,166.200 148.873 C 167.080 148.412,167.530 148.033,167.200 148.030 C 166.870 148.028,165.790 148.584,164.800 149.266 M220.400 153.047 C 220.400 153.267,220.664 153.796,220.987 154.224 C 221.310 154.651,221.575 154.820,221.575 154.600 C 221.575 154.380,221.310 153.851,220.987 153.424 C 220.664 152.996,220.400 152.827,220.400 153.047 M131.685 154.813 C 131.418 155.240,131.207 155.817,131.216 156.095 C 131.225 156.373,131.509 156.089,131.847 155.465 C 132.550 154.168,132.418 153.638,131.685 154.813 M353.370 163.800 C 353.371 168.640,353.429 170.565,353.499 168.078 C 353.569 165.591,353.569 161.631,353.498 159.278 C 353.428 156.925,353.370 158.960,353.370 163.800 M174.800 157.030 C 173.280 157.496,173.218 157.550,174.400 157.380 C 178.499 156.789,179.912 156.734,180.172 157.155 C 180.323 157.400,180.932 157.592,181.524 157.582 C 182.464 157.567,182.398 157.492,181.000 156.988 C 179.053 156.287,177.184 156.300,174.800 157.030 M130.485 157.613 C 130.218 158.040,130.001 158.617,130.002 158.895 C 130.004 159.173,130.277 158.878,130.610 158.240 C 131.303 156.911,131.211 156.450,130.485 157.613 M170.567 158.983 C 169.705 159.744,169.109 160.374,169.242 160.383 C 169.374 160.393,169.935 159.995,170.486 159.500 C 171.038 159.005,171.829 158.386,172.245 158.124 C 172.660 157.861,172.805 157.636,172.567 157.624 C 172.328 157.611,171.428 158.223,170.567 158.983 M183.946 158.216 C 184.686 158.537,185.406 158.794,185.546 158.786 C 186.066 158.757,183.776 157.628,183.200 157.630 C 182.870 157.631,183.206 157.894,183.946 158.216 M222.828 158.200 C 222.827 158.640,223.090 159.349,223.413 159.776 C 224.156 160.759,224.157 160.453,223.416 158.746 C 223.011 157.814,222.830 157.646,222.828 158.200 M129.237 160.711 C 128.953 161.398,128.814 162.193,128.928 162.480 C 129.046 162.774,129.151 162.644,129.168 162.180 C 129.186 161.729,129.400 161.160,129.645 160.915 C 129.890 160.670,130.014 160.243,129.922 159.966 C 129.830 159.689,129.521 160.024,129.237 160.711 M156.643 160.633 C 156.303 161.519,156.351 166.103,156.706 166.661 C 156.868 166.914,157.001 165.519,157.001 163.561 C 157.003 159.706,157.002 159.697,156.643 160.633 M168.652 161.700 C 168.322 162.933,168.350 164.902,168.706 165.462 C 168.868 165.716,169.000 164.771,169.000 163.362 C 169.000 160.492,168.989 160.441,168.652 161.700 M224.036 161.200 C 224.023 161.530,224.271 162.520,224.588 163.400 C 224.905 164.280,225.159 164.640,225.152 164.200 C 225.136 163.223,224.071 160.358,224.036 161.200 M127.467 167.100 C 127.332 168.145,127.122 169.720,127.001 170.600 C 126.838 171.774,126.878 171.980,127.150 171.372 C 127.563 170.451,128.203 165.200,127.902 165.200 C 127.797 165.200,127.601 166.055,127.467 167.100 M225.437 166.400 C 225.554 167.170,225.792 168.790,225.966 170.000 L 226.282 172.200 226.310 170.200 C 226.326 169.100,226.088 167.480,225.781 166.600 L 225.223 165.000 225.437 166.400 M169.200 166.591 C 169.200 166.878,173.605 170.131,173.757 169.956 C 173.831 169.870,172.836 169.037,171.546 168.104 C 170.256 167.171,169.200 166.490,169.200 166.591 M157.232 168.651 C 157.214 169.119,157.499 169.749,157.865 170.051 C 158.460 170.542,158.487 170.515,158.120 169.800 C 157.893 169.360,157.608 168.730,157.486 168.400 C 157.333 167.988,157.253 168.067,157.232 168.651 M175.024 170.587 C 175.451 170.910,176.070 171.179,176.400 171.185 C 176.730 171.190,176.484 170.926,175.854 170.598 C 174.395 169.837,174.025 169.832,175.024 170.587 M158.404 171.200 C 158.408 173.222,168.295 180.809,170.912 180.798 C 171.181 180.797,170.213 180.187,168.762 179.442 C 163.551 176.768,160.885 174.681,159.255 172.000 C 158.786 171.230,158.403 170.870,158.404 171.200 M180.600 172.848 C 181.700 173.301,182.933 173.847,183.339 174.063 C 183.745 174.279,184.174 174.360,184.291 174.243 C 184.408 174.126,183.985 173.818,183.352 173.559 C 182.718 173.300,181.633 172.843,180.940 172.544 C 180.246 172.245,179.436 172.006,179.140 172.013 C 178.843 172.020,179.500 172.396,180.600 172.848 M226.553 177.000 C 226.553 179.640,226.618 180.668,226.697 179.284 C 226.775 177.901,226.774 175.741,226.695 174.484 C 226.616 173.228,226.552 174.360,226.553 177.000 M126.546 177.000 C 126.547 179.200,126.614 180.049,126.695 178.887 C 126.776 177.724,126.776 175.924,126.693 174.887 C 126.611 173.849,126.545 174.800,126.546 177.000 M185.746 175.002 C 187.196 175.759,187.634 175.751,186.624 174.987 C 186.196 174.664,185.566 174.401,185.224 174.402 C 184.881 174.404,185.116 174.674,185.746 175.002 M193.262 179.812 C 194.286 180.906,195.500 182.430,195.961 183.200 C 196.421 183.970,196.798 184.363,196.799 184.073 C 196.800 183.524,195.091 181.038,193.999 180.000 C 192.117 178.212,191.652 178.094,193.262 179.812 M172.176 181.413 C 172.604 181.736,173.234 181.999,173.576 181.998 C 173.919 181.996,173.684 181.726,173.054 181.398 C 171.604 180.641,171.166 180.649,172.176 181.413 M126.857 182.600 C 126.860 183.040,127.115 184.660,127.422 186.200 L 127.981 189.000 127.751 186.228 C 127.525 183.509,126.842 180.737,126.857 182.600 M226.076 184.276 C 226.034 185.638,225.820 186.864,225.600 187.000 C 225.380 187.136,225.207 187.642,225.216 188.124 C 225.228 188.812,225.360 188.702,225.833 187.613 C 226.209 186.746,226.382 185.395,226.293 184.013 L 226.151 181.800 226.076 184.276 M177.200 183.469 C 177.970 183.828,179.410 184.499,180.400 184.960 C 181.390 185.422,182.260 185.935,182.333 186.100 C 182.407 186.265,182.642 186.400,182.857 186.400 C 183.072 186.400,183.144 186.233,183.018 186.028 C 182.730 185.564,176.944 182.797,176.285 182.809 C 176.018 182.814,176.430 183.111,177.200 183.469 M197.055 185.600 C 197.505 186.905,197.502 194.767,197.051 195.800 C 196.770 196.443,196.836 196.420,197.385 195.684 C 198.262 194.507,198.157 185.978,197.255 185.119 C 196.799 184.685,196.766 184.763,197.055 185.600 M184.655 187.800 C 185.267 188.680,185.820 189.475,185.884 189.567 C 185.948 189.658,186.000 189.562,186.000 189.352 C 186.000 189.142,185.447 188.347,184.771 187.585 L 183.542 186.200 184.655 187.800 M128.028 189.476 C 128.118 190.515,128.744 191.396,128.772 190.524 C 128.787 190.042,128.620 189.536,128.400 189.400 C 128.180 189.264,128.013 189.298,128.028 189.476 M224.854 190.476 C 224.825 191.068,224.620 191.664,224.400 191.800 C 224.180 191.936,224.001 192.352,224.002 192.724 C 224.004 193.143,224.239 192.952,224.620 192.221 C 224.958 191.572,225.162 190.672,225.072 190.221 C 224.948 189.597,224.896 189.658,224.854 190.476 M353.370 198.200 C 353.371 203.040,353.429 204.965,353.499 202.478 C 353.569 199.991,353.569 196.031,353.498 193.678 C 353.428 191.325,353.370 193.360,353.370 198.200 M186.093 191.200 C 186.093 191.970,186.175 192.285,186.276 191.900 C 186.376 191.515,186.376 190.885,186.276 190.500 C 186.175 190.115,186.093 190.430,186.093 191.200 M128.861 192.200 C 128.843 192.640,129.086 193.450,129.400 194.000 C 129.763 194.635,129.977 194.773,129.986 194.380 C 129.994 194.039,129.837 193.589,129.639 193.380 C 129.440 193.171,129.191 192.640,129.085 192.200 L 128.893 191.400 128.861 192.200 M160.198 192.402 C 159.798 192.844,159.578 193.311,159.708 193.441 C 159.838 193.571,160.180 193.300,160.469 192.839 C 161.182 191.696,162.211 191.786,163.942 193.142 C 165.566 194.415,168.658 196.400,169.016 196.400 C 169.601 196.400,168.649 195.602,167.102 194.796 C 166.166 194.308,164.744 193.389,163.942 192.754 C 162.228 191.396,161.196 191.299,160.198 192.402 M185.600 193.558 C 185.600 193.755,185.153 194.340,184.607 194.858 C 184.061 195.376,183.611 195.967,183.607 196.172 C 183.603 196.377,184.140 195.939,184.800 195.200 C 185.909 193.958,186.288 193.200,185.800 193.200 C 185.690 193.200,185.600 193.361,185.600 193.558 M157.077 196.557 C 156.045 197.963,155.200 199.279,155.200 199.481 C 155.200 200.117,157.971 202.737,160.086 204.100 C 162.156 205.435,161.676 204.791,159.292 203.036 C 157.974 202.066,156.613 200.868,156.267 200.374 C 155.471 199.238,155.664 198.802,158.428 195.500 C 159.118 194.675,159.519 194.000,159.319 194.000 C 159.118 194.000,158.110 195.150,157.077 196.557 M223.285 194.813 C 223.018 195.240,222.807 195.817,222.816 196.095 C 222.825 196.373,223.109 196.089,223.447 195.465 C 224.150 194.168,224.018 193.638,223.285 194.813 M130.014 195.424 C 130.039 196.094,131.172 197.830,131.173 197.200 C 131.174 196.870,130.910 196.251,130.587 195.824 C 130.264 195.396,130.006 195.216,130.014 195.424 M170.746 197.016 C 172.506 197.780,173.328 197.766,171.854 196.998 C 171.224 196.669,170.414 196.407,170.054 196.416 C 169.694 196.424,170.006 196.694,170.746 197.016 M181.776 196.987 C 181.349 197.310,181.180 197.575,181.400 197.575 C 181.620 197.575,182.149 197.310,182.576 196.987 C 183.004 196.664,183.173 196.400,182.953 196.400 C 182.733 196.400,182.204 196.664,181.776 196.987 M196.104 198.041 C 195.651 199.249,195.663 199.309,196.242 198.729 C 196.591 198.380,196.815 197.785,196.738 197.406 C 196.643 196.932,196.445 197.130,196.104 198.041 M222.073 197.687 C 221.813 197.947,221.600 198.434,221.600 198.769 C 221.600 199.187,221.801 199.091,222.241 198.463 C 222.943 197.461,222.828 196.932,222.073 197.687 M175.248 198.101 C 176.373 198.324,177.782 198.323,178.848 198.097 C 180.404 197.768,180.197 197.727,177.000 197.731 C 173.736 197.735,173.573 197.769,175.248 198.101 M131.214 198.224 C 131.239 198.894,132.372 200.630,132.373 200.000 C 132.374 199.670,132.110 199.051,131.787 198.624 C 131.464 198.196,131.206 198.016,131.214 198.224 M194.061 201.350 C 193.324 202.258,191.909 203.675,190.917 204.500 C 188.752 206.300,189.026 206.522,191.245 204.765 C 192.854 203.490,195.834 200.087,195.557 199.840 C 195.470 199.764,194.797 200.443,194.061 201.350 M220.945 200.100 C 220.135 201.246,219.135 203.268,219.296 203.430 C 219.392 203.526,219.961 202.703,220.560 201.602 C 221.565 199.756,221.780 198.918,220.945 200.100 M134.303 203.862 C 136.524 207.461,141.174 212.898,143.652 214.794 C 144.808 215.679,144.167 214.856,141.760 212.366 C 137.403 207.858,136.000 206.296,136.000 205.950 C 136.000 205.624,132.790 200.800,132.574 200.800 C 132.485 200.800,133.264 202.178,134.303 203.862 M217.167 206.290 C 213.736 210.834,211.015 213.595,206.900 216.705 C 205.305 217.911,204.000 218.977,204.000 219.076 C 204.000 219.543,210.218 214.640,212.429 212.429 C 213.930 210.928,216.767 207.501,218.331 205.300 C 219.891 203.104,219.001 203.861,217.167 206.290 M162.461 205.418 C 162.824 205.789,163.340 206.020,163.606 205.931 C 163.873 205.842,163.575 205.539,162.945 205.256 C 161.873 204.776,161.842 204.786,162.461 205.418 M164.976 206.578 C 165.404 206.920,166.034 207.186,166.376 207.168 C 166.915 207.141,166.918 207.107,166.400 206.914 C 166.070 206.792,165.440 206.526,165.000 206.324 C 164.213 205.962,164.212 205.966,164.976 206.578 M187.600 206.600 C 186.912 206.993,186.803 207.176,187.251 207.186 C 187.609 207.194,188.126 206.930,188.400 206.600 C 189.009 205.866,188.884 205.866,187.600 206.600 M167.476 207.598 C 167.739 207.881,168.857 208.200,169.963 208.306 L 171.972 208.499 172.109 212.250 L 172.246 216.002 172.223 212.101 L 172.200 208.200 170.400 207.961 C 169.410 207.830,168.240 207.579,167.800 207.402 C 167.159 207.146,167.095 207.185,167.476 207.598 M185.487 207.446 C 185.351 207.582,184.646 207.849,183.920 208.039 C 182.634 208.377,182.640 208.382,184.165 208.208 C 185.569 208.048,187.236 207.200,186.147 207.200 C 185.919 207.200,185.622 207.311,185.487 207.446 M181.867 208.667 C 181.720 208.813,181.600 210.778,181.600 213.033 C 181.600 215.434,181.430 217.218,181.190 217.337 C 180.965 217.449,181.010 217.494,181.290 217.438 C 181.674 217.361,182.544 208.389,182.167 208.399 C 182.148 208.400,182.013 208.520,181.867 208.667 M146.370 216.932 C 147.389 218.054,147.608 218.193,147.587 217.700 C 147.581 217.535,147.086 217.054,146.487 216.632 L 145.400 215.864 146.370 216.932 M172.406 216.710 C 172.396 217.540,174.259 218.004,177.326 217.937 L 180.200 217.873 176.679 217.626 C 174.225 217.453,173.044 217.199,172.785 216.789 C 172.523 216.375,172.410 216.352,172.406 216.710 M148.000 218.164 C 148.000 218.462,153.270 221.663,153.455 221.478 C 153.555 221.378,152.653 220.742,151.451 220.064 C 150.249 219.385,149.151 218.644,149.009 218.415 C 148.763 218.016,148.000 217.826,148.000 218.164 M202.400 219.800 C 202.126 220.130,201.676 220.400,201.400 220.400 C 201.124 220.400,200.651 220.699,200.349 221.064 C 199.845 221.675,199.881 221.683,200.797 221.164 C 202.384 220.266,203.744 219.200,203.303 219.200 C 203.080 219.200,202.674 219.470,202.400 219.800 M154.624 222.187 C 155.051 222.510,155.580 222.775,155.800 222.775 C 156.020 222.775,155.851 222.510,155.424 222.187 C 154.996 221.864,154.467 221.600,154.247 221.600 C 154.027 221.600,154.196 221.864,154.624 222.187 M197.824 222.213 C 196.836 222.960,197.485 222.952,198.800 222.200 C 199.380 221.868,199.548 221.628,199.200 221.627 C 198.870 221.626,198.251 221.890,197.824 222.213 M157.600 223.400 C 158.915 224.152,159.564 224.160,158.576 223.413 C 158.149 223.090,157.530 222.826,157.200 222.827 C 156.852 222.828,157.020 223.068,157.600 223.400 M194.800 223.433 C 194.244 223.742,194.067 223.985,194.400 223.980 C 194.730 223.975,195.450 223.714,196.000 223.400 C 196.550 223.086,196.730 222.840,196.400 222.853 C 196.070 222.867,195.350 223.128,194.800 223.433 M160.546 224.602 C 161.176 224.931,161.986 225.193,162.346 225.184 C 162.706 225.176,162.394 224.906,161.654 224.584 C 159.894 223.820,159.072 223.834,160.546 224.602 M192.200 224.400 C 192.064 224.620,191.558 224.821,191.076 224.846 C 190.436 224.880,190.382 224.941,190.877 225.071 C 191.249 225.169,192.059 224.976,192.677 224.641 C 193.428 224.234,193.576 224.027,193.124 224.016 C 192.752 224.007,192.336 224.180,192.200 224.400 M299.487 224.646 C 299.351 224.782,298.646 225.033,297.920 225.205 C 296.854 225.458,296.792 225.520,297.600 225.529 C 298.886 225.542,301.770 224.474,300.567 224.430 C 300.108 224.414,299.622 224.511,299.487 224.646 M353.370 232.800 C 353.370 237.530,353.428 239.465,353.498 237.100 C 353.569 234.735,353.569 230.865,353.498 228.500 C 353.428 226.135,353.370 228.070,353.370 232.800 M164.800 225.758 C 165.350 226.096,166.430 226.356,167.200 226.336 L 168.600 226.300 167.000 226.008 C 166.120 225.847,165.040 225.587,164.600 225.430 C 164.082 225.245,164.153 225.361,164.800 225.758 M188.200 225.600 C 188.064 225.820,187.108 226.031,186.076 226.070 L 184.200 226.140 185.810 226.288 C 186.697 226.370,188.044 226.166,188.810 225.834 C 189.900 225.361,190.011 225.228,189.324 225.216 C 188.842 225.207,188.336 225.380,188.200 225.600 M57.376 226.213 C 57.804 226.536,58.392 226.800,58.684 226.800 C 58.977 226.800,59.977 227.280,60.908 227.866 C 61.839 228.452,62.388 228.677,62.129 228.366 C 61.870 228.055,60.970 227.465,60.129 227.056 C 59.288 226.646,58.287 226.151,57.905 225.956 C 56.830 225.405,56.513 225.559,57.376 226.213 M295.000 226.214 C 294.340 226.517,294.081 226.772,294.424 226.782 C 294.766 226.792,295.396 226.536,295.824 226.213 C 296.772 225.496,296.569 225.496,295.000 226.214 M168.833 226.549 C 168.925 226.631,169.900 226.818,171.000 226.965 C 172.420 227.155,172.826 227.114,172.400 226.823 C 171.861 226.454,168.432 226.190,168.833 226.549 M180.400 226.800 C 179.624 227.302,182.233 227.302,183.400 226.800 C 184.029 226.530,183.857 226.452,182.600 226.434 C 181.720 226.422,180.730 226.587,180.400 226.800 M291.158 228.561 C 289.161 230.129,286.400 233.146,286.400 233.761 C 286.400 233.896,287.795 232.585,289.500 230.847 C 291.205 229.109,292.870 227.603,293.200 227.499 C 293.530 227.395,293.702 227.202,293.582 227.070 C 293.462 226.938,292.371 227.609,291.158 228.561 M176.105 227.487 C 176.714 227.579,177.614 227.577,178.105 227.482 C 178.597 227.387,178.100 227.311,177.000 227.314 C 175.900 227.317,175.497 227.395,176.105 227.487 M64.781 231.000 C 67.674 234.217,67.867 234.399,66.898 233.000 C 66.441 232.340,65.292 231.080,64.345 230.200 C 62.885 228.843,62.951 228.965,64.781 231.000 M68.816 237.476 C 68.807 237.958,68.980 238.464,69.200 238.600 C 69.420 238.736,69.621 239.242,69.646 239.724 C 69.675 240.267,69.756 240.364,69.860 239.979 C 69.953 239.638,69.759 238.738,69.430 237.979 C 68.958 236.893,68.828 236.786,68.816 237.476 M284.481 238.288 C 283.796 240.575,283.921 241.334,284.643 239.273 C 284.976 238.323,285.184 237.352,285.105 237.115 C 285.026 236.878,284.745 237.406,284.481 238.288 M70.006 242.676 C 70.003 242.938,70.166 243.255,70.368 243.380 C 70.846 243.676,283.157 243.674,283.636 243.378 C 283.836 243.254,284.000 242.961,284.000 242.727 C 284.000 242.439,283.825 242.447,283.457 242.753 C 282.624 243.444,70.770 243.393,70.331 242.701 C 70.098 242.335,70.011 242.328,70.006 242.676 M353.370 267.200 C 353.370 271.930,353.428 273.865,353.498 271.500 C 353.569 269.135,353.569 265.265,353.498 262.900 C 353.428 260.535,353.370 262.470,353.370 267.200 M131.700 275.500 C 169.265 275.556,230.735 275.556,268.300 275.500 C 305.865 275.444,275.130 275.398,200.000 275.398 C 124.870 275.398,94.135 275.444,131.700 275.500 M49.067 275.867 C 48.446 276.488,48.776 289.519,49.429 290.172 C 49.999 290.742,64.200 290.792,201.280 290.701 L 352.502 290.600 353.095 289.600 C 353.658 288.650,353.655 288.640,353.027 289.400 C 352.335 290.237,58.255 290.921,51.800 290.101 L 49.400 289.796 49.400 282.698 C 49.400 278.794,49.385 275.600,49.367 275.600 C 49.348 275.600,49.213 275.720,49.067 275.867 " stroke="none" fill="#a4a4a4" fill-rule="evenodd"></path><path id="path4" d="M23.043 87.433 C 22.909 87.781,22.844 128.326,22.899 177.533 L 22.997 267.000 23.199 177.200 L 23.400 87.400 176.376 87.299 C 298.493 87.219,329.416 87.300,329.670 87.699 C 330.085 88.353,330.086 266.046,329.671 266.699 C 329.418 267.097,298.109 267.220,176.177 267.300 L 23.000 267.401 176.286 267.501 C 327.479 267.599,329.578 267.589,329.986 266.826 C 330.624 265.634,330.559 87.919,329.920 87.280 C 329.085 86.445,23.364 86.597,23.043 87.433 M38.598 177.567 C 38.600 244.219,38.669 252.952,39.200 253.097 C 39.643 253.218,39.670 253.169,39.301 252.907 C 38.906 252.628,38.781 236.885,38.699 177.377 L 38.597 102.200 38.598 177.567 M314.899 178.071 C 314.805 248.802,314.763 252.751,314.100 252.924 C 313.444 253.096,313.445 253.110,314.113 253.154 C 315.242 253.227,315.210 255.687,315.102 177.800 L 314.998 103.400 314.899 178.071 M70.662 111.500 C 70.494 111.771,142.004 111.770,245.200 111.498 C 266.430 111.442,235.886 111.352,177.324 111.298 C 118.762 111.244,70.764 111.335,70.662 111.500 M283.693 113.200 C 283.693 113.970,283.775 114.285,283.876 113.900 C 283.976 113.515,283.976 112.885,283.876 112.500 C 283.775 112.115,283.693 112.430,283.693 113.200 M69.942 115.800 C 69.816 116.460,69.586 117.360,69.431 117.800 C 69.276 118.240,69.442 118.095,69.799 117.477 C 70.157 116.859,70.387 115.959,70.310 115.477 C 70.193 114.747,70.132 114.801,69.942 115.800 M284.012 115.200 C 284.012 115.530,284.187 116.070,284.400 116.400 C 284.745 116.933,284.788 116.933,284.788 116.400 C 284.788 116.070,284.613 115.530,284.400 115.200 C 284.055 114.667,284.012 114.667,284.012 115.200 M339.200 115.900 C 339.200 116.065,342.243 116.200,345.962 116.200 C 349.681 116.200,352.640 116.065,352.538 115.900 C 352.436 115.735,349.393 115.600,345.776 115.600 C 342.159 115.600,339.200 115.735,339.200 115.900 M284.832 117.624 C 284.814 117.966,285.080 118.596,285.422 119.024 C 286.034 119.788,286.038 119.787,285.676 119.000 C 285.474 118.560,285.208 117.930,285.086 117.600 C 284.893 117.082,284.859 117.085,284.832 117.624 M339.362 123.400 C 339.362 126.920,339.424 128.306,339.498 126.481 C 339.572 124.656,339.572 121.776,339.497 120.081 C 339.422 118.386,339.361 119.880,339.362 123.400 M68.456 119.855 C 67.976 120.927,67.986 120.958,68.618 120.339 C 68.989 119.976,69.220 119.460,69.131 119.194 C 69.042 118.927,68.739 119.225,68.456 119.855 M286.012 120.108 C 285.986 120.773,288.004 123.481,289.658 125.000 L 291.400 126.599 289.664 124.748 C 288.709 123.729,287.499 122.199,286.976 121.348 C 286.453 120.497,286.019 119.939,286.012 120.108 M66.571 122.689 C 65.943 123.520,64.793 124.806,64.015 125.547 L 62.600 126.894 64.300 125.613 C 65.235 124.909,66.000 124.211,66.000 124.062 C 66.000 123.914,66.468 123.287,67.040 122.670 C 67.613 122.053,67.998 121.465,67.896 121.363 C 67.795 121.261,67.198 121.858,66.571 122.689 M170.539 126.706 C 170.285 126.868,173.013 127.000,176.601 127.000 C 180.189 127.000,182.917 126.868,182.662 126.706 C 182.408 126.544,179.680 126.412,176.600 126.412 C 173.520 126.412,170.793 126.544,170.539 126.706 M60.811 127.695 C 60.047 128.128,58.607 128.815,57.611 129.220 C 56.615 129.625,56.033 129.966,56.317 129.978 C 56.769 129.997,61.924 127.761,62.367 127.353 C 62.946 126.820,61.977 127.032,60.811 127.695 M164.600 127.824 C 163.940 128.147,163.760 128.297,164.200 128.157 C 164.640 128.016,166.080 127.768,167.400 127.605 L 169.800 127.309 167.800 127.273 C 166.700 127.253,165.260 127.501,164.600 127.824 M185.100 127.482 C 185.595 127.578,186.405 127.578,186.900 127.482 C 187.395 127.387,186.990 127.309,186.000 127.309 C 185.010 127.309,184.605 127.387,185.100 127.482 M294.200 128.400 C 294.860 128.837,295.663 129.196,295.985 129.197 C 296.306 129.199,295.863 128.840,295.000 128.400 C 293.001 127.381,292.661 127.381,294.200 128.400 M191.785 129.000 C 192.656 129.310,193.446 129.487,193.540 129.393 C 193.777 129.157,191.698 128.396,190.874 128.418 C 190.503 128.427,190.913 128.689,191.785 129.000 M297.000 129.600 C 297.136 129.820,297.642 129.987,298.124 129.972 C 298.969 129.945,298.971 129.931,298.200 129.600 C 297.099 129.127,296.708 129.127,297.000 129.600 M157.600 130.200 C 157.050 130.514,156.780 130.772,157.000 130.772 C 157.220 130.772,157.850 130.514,158.400 130.200 C 158.950 129.886,159.220 129.628,159.000 129.628 C 158.780 129.628,158.150 129.886,157.600 130.200 M194.600 129.885 C 195.040 129.991,195.571 130.240,195.780 130.439 C 195.989 130.637,196.349 130.794,196.580 130.787 C 196.811 130.780,196.651 130.510,196.224 130.187 C 195.796 129.864,195.076 129.621,194.624 129.646 C 193.820 129.692,193.820 129.697,194.600 129.885 M47.364 130.551 C 47.247 130.854,47.220 131.979,47.304 133.051 L 47.456 135.000 47.528 132.715 L 47.600 130.430 51.300 130.298 L 55.000 130.166 51.287 130.083 C 48.445 130.019,47.525 130.129,47.364 130.551 M302.800 130.363 L 305.800 130.600 306.003 177.000 L 306.207 223.400 306.203 176.800 L 306.200 130.200 303.000 130.163 L 299.800 130.126 302.800 130.363 M154.800 131.400 C 154.250 131.714,153.980 131.972,154.200 131.972 C 154.420 131.972,155.050 131.714,155.600 131.400 C 156.150 131.086,156.420 130.828,156.200 130.828 C 155.980 130.828,155.350 131.086,154.800 131.400 M197.233 130.946 C 198.040 131.651,199.352 132.073,198.851 131.465 C 198.549 131.099,198.024 130.800,197.684 130.800 C 197.345 130.800,197.142 130.866,197.233 130.946 M150.860 133.392 C 149.683 134.123,148.513 134.937,148.260 135.202 C 147.880 135.600,153.040 132.635,153.567 132.153 C 154.200 131.573,152.641 132.286,150.860 133.392 M199.633 132.146 C 200.440 132.851,201.752 133.273,201.251 132.665 C 200.949 132.299,200.424 132.000,200.084 132.000 C 199.745 132.000,199.542 132.066,199.633 132.146 M204.123 134.676 C 204.478 135.251,208.001 137.671,207.978 137.325 C 207.966 137.146,207.047 136.400,205.934 135.667 C 204.822 134.934,204.007 134.488,204.123 134.676 M146.406 136.382 C 145.859 136.802,145.499 137.224,145.606 137.321 C 145.713 137.417,146.246 137.069,146.792 136.548 C 147.982 135.410,147.782 135.324,146.406 136.382 M173.424 137.813 C 172.996 138.136,172.825 138.400,173.044 138.400 C 173.262 138.400,173.611 138.229,173.820 138.020 C 174.029 137.812,175.460 137.577,177.000 137.499 L 179.800 137.357 177.000 137.291 C 175.072 137.246,173.958 137.408,173.424 137.813 M180.500 137.722 C 181.078 138.190,181.200 138.953,181.200 142.111 C 181.200 146.378,181.386 147.206,182.343 147.188 C 182.926 147.177,182.921 147.130,182.300 146.768 C 181.704 146.421,181.600 145.740,181.600 142.194 C 181.600 138.270,181.548 138.003,180.700 137.592 C 179.888 137.198,179.868 137.211,180.500 137.722 M47.340 140.800 C 47.340 142.670,47.409 143.435,47.493 142.500 C 47.577 141.565,47.577 140.035,47.493 139.100 C 47.409 138.165,47.340 138.930,47.340 140.800 M140.760 141.508 C 137.474 144.924,134.009 149.200,134.527 149.200 C 134.624 149.200,135.467 148.165,136.400 146.900 C 137.333 145.635,139.694 143.025,141.646 141.100 C 143.598 139.175,145.043 137.600,144.858 137.600 C 144.672 137.600,142.829 139.359,140.760 141.508 M208.400 137.722 C 208.400 137.802,208.940 138.349,209.600 138.937 C 210.260 139.525,210.800 139.859,210.800 139.678 C 210.800 139.498,210.260 138.951,209.600 138.463 C 208.940 137.975,208.400 137.642,208.400 137.722 M369.000 139.180 L 375.800 139.400 375.909 225.400 C 375.969 272.700,375.921 311.806,375.801 312.303 L 375.583 313.205 224.330 313.197 C 141.141 313.193,72.986 313.281,72.875 313.392 C 72.534 313.732,375.366 313.611,375.901 313.271 C 376.300 313.016,376.381 295.292,376.301 225.976 L 376.200 139.000 369.200 138.980 L 362.200 138.961 369.000 139.180 M212.400 141.400 C 213.146 142.170,213.847 142.800,213.957 142.800 C 214.067 142.800,213.546 142.170,212.800 141.400 C 212.054 140.630,211.353 140.000,211.243 140.000 C 211.133 140.000,211.654 140.630,212.400 141.400 M214.800 143.759 C 214.800 144.087,219.228 150.000,219.473 150.000 C 219.641 150.000,217.237 146.422,216.786 146.000 C 216.669 145.890,216.174 145.281,215.686 144.646 C 215.199 144.011,214.800 143.612,214.800 143.759 M172.173 146.768 C 171.968 146.963,171.440 147.209,171.000 147.315 L 170.200 147.507 171.000 147.547 C 171.891 147.592,173.097 146.963,172.762 146.628 C 172.643 146.510,172.379 146.573,172.173 146.768 M47.340 150.000 C 47.340 151.870,47.409 152.635,47.493 151.700 C 47.577 150.765,47.577 149.235,47.493 148.300 C 47.409 147.365,47.340 148.130,47.340 150.000 M185.400 147.812 C 186.280 148.129,187.270 148.377,187.600 148.364 C 188.442 148.329,185.577 147.264,184.600 147.248 C 184.160 147.241,184.520 147.495,185.400 147.812 M165.926 149.214 C 165.115 149.642,164.346 150.164,164.216 150.373 C 164.031 150.674,167.276 149.081,167.967 148.532 C 168.496 148.112,167.181 148.551,165.926 149.214 M189.024 148.987 C 189.451 149.310,190.070 149.574,190.400 149.573 C 190.748 149.572,190.580 149.332,190.000 149.000 C 188.685 148.248,188.036 148.240,189.024 148.987 M191.375 149.959 C 191.497 150.157,192.239 150.698,193.023 151.160 C 193.807 151.623,194.348 151.839,194.225 151.641 C 194.103 151.443,193.361 150.902,192.577 150.440 C 191.793 149.977,191.252 149.761,191.375 149.959 M219.608 150.501 C 219.603 150.667,220.137 151.657,220.792 152.701 C 221.448 153.746,221.988 154.464,221.992 154.299 C 221.997 154.133,221.463 153.143,220.808 152.099 C 220.152 151.054,219.612 150.336,219.608 150.501 M161.654 152.634 C 160.693 153.605,160.018 154.400,160.154 154.400 C 160.488 154.400,163.701 151.168,163.533 151.001 C 163.460 150.928,162.614 151.663,161.654 152.634 M131.868 153.465 C 131.261 154.470,130.848 155.496,130.950 155.746 C 131.075 156.049,131.147 156.031,131.168 155.692 C 131.186 155.413,131.663 154.451,132.229 153.554 C 132.795 152.658,133.193 151.860,133.115 151.781 C 133.036 151.702,132.475 152.460,131.868 153.465 M195.614 153.974 C 195.107 154.921,195.084 155.319,195.552 155.030 C 195.905 154.812,196.455 153.200,196.177 153.200 C 196.095 153.200,195.842 153.548,195.614 153.974 M194.039 157.100 C 193.612 157.925,192.829 159.179,192.299 159.886 L 191.335 161.172 189.832 160.366 C 189.005 159.923,188.446 159.750,188.589 159.983 C 189.314 161.155,191.277 161.702,192.011 160.937 C 192.839 160.075,195.384 155.600,195.046 155.600 C 194.920 155.600,194.467 156.275,194.039 157.100 M47.340 159.200 C 47.340 161.070,47.409 161.835,47.493 160.900 C 47.577 159.965,47.577 158.435,47.493 157.500 C 47.409 156.565,47.340 157.330,47.340 159.200 M174.600 156.285 C 174.160 156.391,173.620 156.667,173.400 156.898 C 173.123 157.188,173.246 157.220,173.800 157.001 C 174.240 156.826,175.950 156.557,177.600 156.402 L 180.600 156.121 178.000 156.107 C 176.570 156.099,175.040 156.179,174.600 156.285 M130.085 157.213 C 129.818 157.640,129.601 158.217,129.602 158.495 C 129.604 158.773,129.877 158.478,130.210 157.840 C 130.903 156.511,130.811 156.050,130.085 157.213 M158.085 157.773 C 157.386 159.308,157.492 160.017,158.213 158.633 C 158.548 157.991,158.765 157.296,158.696 157.088 C 158.627 156.880,158.352 157.188,158.085 157.773 M183.800 157.485 C 184.240 157.591,184.771 157.840,184.980 158.039 C 185.189 158.237,185.549 158.394,185.780 158.387 C 186.011 158.380,185.851 158.110,185.424 157.787 C 184.996 157.464,184.276 157.221,183.824 157.246 C 183.020 157.292,183.020 157.297,183.800 157.485 M223.200 157.678 C 223.200 157.805,223.469 158.424,223.798 159.054 C 224.126 159.684,224.390 159.930,224.385 159.600 C 224.379 159.270,224.110 158.651,223.787 158.224 C 223.464 157.796,223.200 157.551,223.200 157.678 M169.510 159.100 C 167.199 161.735,167.236 166.339,169.579 167.787 C 169.794 167.920,169.529 167.257,168.990 166.314 C 167.700 164.059,168.126 159.600,169.631 159.600 C 169.787 159.600,170.018 159.330,170.145 159.000 C 170.447 158.213,170.262 158.242,169.510 159.100 M128.811 160.171 C 128.585 160.765,128.408 161.555,128.418 161.926 C 128.427 162.297,128.689 161.887,129.000 161.015 C 129.630 159.246,129.457 158.471,128.811 160.171 M157.340 163.600 C 157.340 165.470,157.409 166.235,157.493 165.300 C 157.577 164.365,157.577 162.835,157.493 161.900 C 157.409 160.965,157.340 161.730,157.340 163.600 M224.406 160.820 C 224.409 160.919,224.688 161.720,225.024 162.600 L 225.637 164.200 225.411 162.813 C 225.234 161.725,224.380 160.031,224.406 160.820 M127.293 166.000 C 127.293 166.770,127.375 167.085,127.476 166.700 C 127.576 166.315,127.576 165.685,127.476 165.300 C 127.375 164.915,127.293 165.230,127.293 166.000 M225.844 165.800 C 226.173 167.271,226.402 167.590,226.394 166.567 C 226.391 166.145,226.205 165.530,225.982 165.200 C 225.685 164.762,225.648 164.924,225.844 165.800 M47.340 168.400 C 47.340 170.270,47.409 171.035,47.493 170.100 C 47.577 169.165,47.577 167.635,47.493 166.700 C 47.409 165.765,47.340 166.530,47.340 168.400 M126.649 168.215 C 126.512 168.573,126.420 169.436,126.444 170.133 C 126.482 171.237,126.533 171.171,126.836 169.625 C 127.193 167.805,127.094 167.057,126.649 168.215 M157.630 168.000 C 157.628 168.576,158.757 170.866,158.786 170.346 C 158.794 170.206,158.537 169.486,158.216 168.746 C 157.894 168.006,157.631 167.670,157.630 168.000 M226.493 168.800 C 226.493 169.570,226.575 169.885,226.676 169.500 C 226.776 169.115,226.776 168.485,226.676 168.100 C 226.575 167.715,226.493 168.030,226.493 168.800 M174.400 170.811 C 174.400 171.158,175.953 171.781,176.201 171.532 C 176.278 171.455,175.905 171.185,175.371 170.933 C 174.837 170.681,174.400 170.626,174.400 170.811 M159.476 171.912 C 159.867 172.634,160.812 173.804,161.577 174.512 L 162.966 175.800 161.583 174.196 C 160.822 173.314,159.877 172.144,159.483 171.596 C 158.791 170.635,158.790 170.646,159.476 171.912 M226.980 176.937 C 226.991 179.920,227.122 182.054,227.272 181.680 C 227.636 180.768,227.620 173.194,227.252 172.257 C 227.091 171.848,226.968 173.954,226.980 176.937 M126.153 177.000 C 126.153 179.640,126.218 180.668,126.297 179.284 C 126.375 177.901,126.374 175.741,126.295 174.484 C 126.216 173.228,126.152 174.360,126.153 177.000 M47.340 177.600 C 47.340 179.470,47.409 180.235,47.493 179.300 C 47.577 178.365,47.577 176.835,47.493 175.900 C 47.409 174.965,47.340 175.730,47.340 177.600 M190.400 177.964 C 190.950 178.435,192.297 179.671,193.394 180.710 C 194.491 181.750,195.125 182.240,194.802 181.800 C 193.843 180.493,192.697 179.416,191.000 178.228 C 190.120 177.612,189.850 177.493,190.400 177.964 M169.824 179.787 C 170.251 180.110,170.870 180.379,171.200 180.385 C 171.530 180.390,171.284 180.126,170.654 179.798 C 169.195 179.037,168.825 179.032,169.824 179.787 M176.800 182.686 C 177.130 182.808,177.760 183.074,178.200 183.276 C 178.987 183.638,178.988 183.634,178.224 183.022 C 177.796 182.680,177.166 182.414,176.824 182.432 C 176.285 182.459,176.282 182.493,176.800 182.686 M126.406 184.033 C 126.409 184.785,126.592 185.670,126.812 186.000 C 127.091 186.419,127.133 186.058,126.950 184.800 C 126.625 182.559,126.398 182.240,126.406 184.033 M47.340 186.800 C 47.340 188.670,47.409 189.435,47.493 188.500 C 47.577 187.565,47.577 186.035,47.493 185.100 C 47.409 184.165,47.340 184.930,47.340 186.800 M180.800 184.506 C 181.790 184.997,182.838 185.625,183.129 185.900 C 183.419 186.175,183.818 186.400,184.014 186.400 C 184.211 186.400,184.828 187.072,185.386 187.893 C 185.944 188.714,186.400 189.164,186.400 188.893 C 186.400 187.649,180.995 183.581,179.374 183.606 C 179.168 183.609,179.810 184.014,180.800 184.506 M226.509 185.600 C 226.509 186.590,226.587 186.995,226.682 186.500 C 226.778 186.005,226.778 185.195,226.682 184.700 C 226.587 184.205,226.509 184.610,226.509 185.600 M127.293 188.000 C 127.293 188.770,127.375 189.085,127.476 188.700 C 127.576 188.315,127.576 187.685,127.476 187.300 C 127.375 186.915,127.293 187.230,127.293 188.000 M197.161 190.800 C 197.034 192.670,196.808 194.650,196.660 195.200 C 196.491 195.830,196.621 195.705,197.012 194.863 C 197.446 193.929,197.596 192.604,197.513 190.463 L 197.393 187.400 197.161 190.800 M127.612 190.000 C 127.612 190.330,127.787 190.870,128.000 191.200 C 128.345 191.733,128.388 191.733,128.388 191.200 C 128.388 190.870,128.213 190.330,128.000 190.000 C 127.655 189.467,127.612 189.467,127.612 190.000 M186.493 191.200 C 186.493 191.970,186.575 192.285,186.676 191.900 C 186.776 191.515,186.776 190.885,186.676 190.500 C 186.575 190.115,186.493 190.430,186.493 191.200 M47.351 194.800 C 47.351 197.330,47.416 198.365,47.496 197.100 C 47.575 195.835,47.575 193.765,47.496 192.500 C 47.416 191.235,47.351 192.270,47.351 194.800 M225.132 191.200 C 225.006 191.750,224.778 192.560,224.626 193.000 C 224.474 193.440,224.642 193.295,224.999 192.677 C 225.357 192.059,225.585 191.249,225.505 190.877 C 225.402 190.394,225.295 190.487,225.132 191.200 M128.432 192.600 C 128.430 193.040,128.686 193.850,129.000 194.400 C 129.730 195.678,129.734 195.404,129.012 193.400 C 128.695 192.520,128.434 192.160,128.432 192.600 M160.584 192.817 C 159.936 193.533,159.929 193.602,160.522 193.374 C 160.895 193.231,161.200 192.967,161.200 192.787 C 161.200 192.606,161.515 192.376,161.900 192.276 C 162.469 192.127,162.480 192.084,161.962 192.046 C 161.611 192.021,160.991 192.368,160.584 192.817 M162.800 192.757 C 162.800 192.950,163.250 193.403,163.800 193.763 C 164.350 194.124,164.800 194.357,164.800 194.281 C 164.800 194.206,164.350 193.753,163.800 193.275 C 163.250 192.797,162.800 192.563,162.800 192.757 M184.825 195.369 L 183.450 197.000 185.005 195.513 C 185.860 194.696,186.479 193.962,186.380 193.883 C 186.281 193.803,185.581 194.472,184.825 195.369 M158.629 195.519 L 157.487 197.000 158.823 195.713 C 159.558 195.005,160.072 194.338,159.965 194.231 C 159.858 194.125,159.257 194.704,158.629 195.519 M223.704 195.084 C 223.431 195.666,223.282 196.215,223.372 196.305 C 223.612 196.546,224.473 194.818,224.326 194.391 C 224.257 194.190,223.977 194.502,223.704 195.084 M129.602 196.024 C 129.601 196.366,129.864 196.996,130.187 197.424 C 130.951 198.434,130.959 197.996,130.202 196.546 C 129.874 195.916,129.604 195.681,129.602 196.024 M170.176 197.413 C 170.604 197.736,171.324 197.979,171.776 197.954 C 172.580 197.908,172.580 197.903,171.800 197.715 C 171.360 197.609,170.829 197.360,170.620 197.161 C 170.411 196.963,170.051 196.806,169.820 196.813 C 169.589 196.820,169.749 197.090,170.176 197.413 M195.665 197.817 C 194.995 199.288,195.123 199.602,195.847 198.265 C 196.186 197.640,196.388 197.054,196.296 196.963 C 196.205 196.871,195.921 197.256,195.665 197.817 M156.576 198.180 C 155.755 199.434,156.078 200.416,157.704 201.599 C 158.417 202.118,159.621 203.005,160.380 203.571 C 161.139 204.137,161.650 204.418,161.515 204.196 C 161.381 203.973,160.268 203.073,159.041 202.196 C 156.487 200.368,156.072 199.560,156.976 198.180 C 157.329 197.641,157.528 197.200,157.418 197.200 C 157.308 197.200,156.929 197.641,156.576 198.180 M173.600 198.405 C 173.930 198.616,174.725 198.791,175.367 198.794 C 176.914 198.802,176.577 198.571,174.600 198.268 C 173.510 198.101,173.191 198.145,173.600 198.405 M178.800 198.400 C 177.416 198.691,177.414 198.695,178.600 198.741 C 179.260 198.767,180.070 198.613,180.400 198.400 C 181.066 197.970,180.845 197.970,178.800 198.400 M47.351 204.000 C 47.351 206.530,47.416 207.565,47.496 206.300 C 47.575 205.035,47.575 202.965,47.496 201.700 C 47.416 200.435,47.351 201.470,47.351 204.000 M192.529 202.197 C 191.170 203.611,189.228 205.159,188.214 205.636 C 187.199 206.112,186.449 206.583,186.547 206.681 C 187.156 207.289,191.997 203.729,193.998 201.202 C 195.776 198.958,195.391 199.218,192.529 202.197 M132.000 200.913 C 132.000 201.291,134.452 205.277,135.086 205.929 C 135.980 206.848,135.653 206.199,133.800 203.378 C 132.810 201.871,132.000 200.761,132.000 200.913 M219.692 203.429 C 219.197 204.183,218.929 204.799,219.096 204.797 C 219.419 204.795,220.907 202.373,220.708 202.174 C 220.643 202.110,220.186 202.674,219.692 203.429 M165.200 206.200 C 165.750 206.514,166.470 206.777,166.800 206.783 C 167.130 206.790,166.884 206.526,166.254 206.198 C 164.794 205.436,163.867 205.438,165.200 206.200 M216.969 207.500 C 216.349 208.325,215.653 209.132,215.421 209.294 C 215.129 209.498,215.133 209.590,215.432 209.594 C 215.670 209.597,216.446 208.790,217.157 207.800 C 218.716 205.629,218.560 205.381,216.969 207.500 M168.600 207.378 C 169.260 207.700,170.340 207.951,171.000 207.936 C 172.185 207.908,172.183 207.904,170.800 207.589 C 170.030 207.413,168.950 207.162,168.400 207.031 C 167.554 206.828,167.585 206.882,168.600 207.378 M184.600 207.200 C 184.464 207.420,183.868 207.625,183.276 207.654 C 182.368 207.700,182.337 207.736,183.077 207.879 C 183.559 207.973,184.459 207.776,185.077 207.441 C 185.828 207.034,185.976 206.827,185.524 206.816 C 185.152 206.807,184.736 206.980,184.600 207.200 M136.400 207.836 C 136.400 208.497,142.950 215.034,145.600 217.017 C 147.030 218.087,148.290 219.070,148.400 219.201 C 148.728 219.593,152.788 222.001,153.106 221.992 C 153.268 221.988,152.500 221.421,151.400 220.732 C 146.432 217.619,141.344 213.260,137.700 208.993 C 136.985 208.156,136.400 207.635,136.400 207.836 M181.467 208.267 C 181.320 208.413,181.200 210.380,181.200 212.637 C 181.200 215.564,181.057 216.789,180.700 216.909 C 180.412 217.006,180.454 217.059,180.800 217.034 C 181.265 217.001,182.229 207.987,181.767 207.999 C 181.748 208.000,181.613 208.120,181.467 208.267 M47.351 213.200 C 47.351 215.730,47.416 216.765,47.496 215.500 C 47.575 214.235,47.575 212.165,47.496 210.900 C 47.416 209.635,47.351 210.670,47.351 213.200 M212.388 212.700 L 209.800 215.400 212.500 212.812 C 213.985 211.388,215.200 210.173,215.200 210.112 C 215.200 209.817,214.793 210.192,212.388 212.700 M172.800 216.100 C 172.800 216.459,172.992 216.871,173.227 217.016 C 173.913 217.440,173.980 217.061,173.367 216.223 C 172.893 215.574,172.800 215.554,172.800 216.100 M206.875 217.439 C 205.514 218.451,204.400 219.362,204.400 219.464 C 204.400 219.642,206.713 218.032,208.800 216.400 C 210.816 214.824,209.276 215.655,206.875 217.439 M47.342 221.400 C 47.341 223.380,47.408 224.240,47.492 223.312 C 47.576 222.384,47.577 220.764,47.495 219.712 C 47.412 218.660,47.343 219.420,47.342 221.400 M199.400 222.034 C 197.146 223.327,197.235 223.621,199.516 222.415 C 201.425 221.406,202.305 220.803,201.800 220.849 C 201.580 220.869,200.500 221.402,199.400 222.034 M154.224 222.587 C 154.651 222.910,155.270 223.179,155.600 223.185 C 155.930 223.190,155.684 222.926,155.054 222.598 C 153.595 221.837,153.225 221.832,154.224 222.587 M157.024 223.787 C 157.451 224.110,158.070 224.374,158.400 224.373 C 158.748 224.372,158.580 224.132,158.000 223.800 C 156.685 223.048,156.036 223.040,157.024 223.787 M196.200 223.600 C 196.064 223.820,195.558 224.021,195.076 224.046 C 194.411 224.082,194.367 224.137,194.893 224.274 C 195.273 224.374,195.989 224.173,196.482 223.828 C 196.975 223.483,197.169 223.200,196.913 223.200 C 196.657 223.200,196.336 223.380,196.200 223.600 M48.693 224.320 C 48.291 224.488,49.238 224.630,50.893 224.649 C 52.492 224.667,54.430 224.794,55.200 224.930 L 56.600 225.178 55.200 224.743 C 53.403 224.184,49.607 223.937,48.693 224.320 M298.600 224.400 C 298.464 224.620,297.973 224.800,297.508 224.800 C 296.328 224.800,291.870 227.032,290.957 228.079 C 290.315 228.815,290.414 228.791,291.600 227.922 C 293.215 226.739,296.591 225.200,297.571 225.200 C 297.939 225.200,298.411 225.037,298.620 224.839 C 298.829 224.640,299.360 224.391,299.800 224.285 C 300.540 224.107,300.534 224.089,299.724 224.046 C 299.242 224.021,298.736 224.180,298.600 224.400 M160.176 225.013 C 160.604 225.336,161.324 225.579,161.776 225.554 C 162.580 225.508,162.580 225.503,161.800 225.315 C 161.360 225.209,160.829 224.960,160.620 224.761 C 160.411 224.563,160.051 224.406,159.820 224.413 C 159.589 224.420,159.749 224.690,160.176 225.013 M192.980 224.761 C 192.771 224.960,192.240 225.209,191.800 225.315 C 191.020 225.503,191.020 225.508,191.824 225.554 C 192.276 225.579,192.996 225.336,193.424 225.013 C 193.851 224.690,194.011 224.420,193.780 224.413 C 193.549 224.406,193.189 224.563,192.980 224.761 M165.700 226.676 C 166.085 226.776,166.715 226.776,167.100 226.676 C 167.485 226.575,167.170 226.493,166.400 226.493 C 165.630 226.493,165.315 226.575,165.700 226.676 M186.500 226.676 C 186.885 226.776,187.515 226.776,187.900 226.676 C 188.285 226.575,187.970 226.493,187.200 226.493 C 186.430 226.493,186.115 226.575,186.500 226.676 M168.800 227.200 C 169.130 227.413,170.030 227.569,170.800 227.547 L 172.200 227.505 171.000 227.200 C 169.124 226.723,168.061 226.723,168.800 227.200 M182.200 227.200 L 180.600 227.486 182.276 227.543 C 183.198 227.574,184.064 227.420,184.200 227.200 C 184.336 226.980,184.302 226.826,184.124 226.857 C 183.946 226.888,183.080 227.042,182.200 227.200 M62.898 228.584 C 63.895 229.346,65.473 230.831,66.405 231.884 C 67.377 232.984,67.732 233.255,67.237 232.521 C 66.276 231.094,62.050 227.200,61.463 227.200 C 61.255 227.200,61.901 227.823,62.898 228.584 M174.500 227.894 C 175.545 227.976,177.255 227.976,178.300 227.894 C 179.345 227.812,178.490 227.744,176.400 227.744 C 174.310 227.744,173.455 227.812,174.500 227.894 M287.894 230.906 C 286.852 232.034,286.009 233.147,286.021 233.378 C 286.033 233.610,286.348 233.360,286.721 232.822 C 287.094 232.285,288.014 231.249,288.764 230.520 C 289.514 229.791,290.052 229.118,289.958 229.025 C 289.865 228.932,288.936 229.778,287.894 230.906 M68.025 234.200 C 68.025 234.420,68.290 234.949,68.613 235.376 C 68.936 235.804,69.200 235.973,69.200 235.753 C 69.200 235.533,68.936 235.004,68.613 234.576 C 68.290 234.149,68.025 233.980,68.025 234.200 M285.232 234.739 C 284.579 235.960,284.714 236.300,285.441 235.263 C 285.793 234.760,285.988 234.254,285.873 234.140 C 285.759 234.025,285.470 234.295,285.232 234.739 M284.046 237.639 C 283.801 238.343,283.612 239.298,283.627 239.760 C 283.642 240.222,283.896 239.700,284.192 238.600 C 284.804 236.321,284.714 235.724,284.046 237.639 M283.131 242.202 C 283.020 242.314,235.081 242.405,176.600 242.404 C 118.119 242.404,70.363 242.496,70.475 242.608 C 70.886 243.019,282.946 242.814,283.358 242.402 C 283.579 242.181,283.664 242.000,283.547 242.000 C 283.429 242.000,283.242 242.091,283.131 242.202 M108.100 253.100 C 145.665 253.156,207.135 253.156,244.700 253.100 C 282.265 253.044,251.530 252.998,176.400 252.998 C 101.270 252.998,70.535 253.044,108.100 253.100 M49.467 276.267 C 48.966 276.767,49.163 289.003,49.680 289.520 C 50.226 290.066,352.201 290.246,352.538 289.700 C 352.640 289.535,284.566 289.400,201.262 289.400 L 49.800 289.400 49.800 282.700 C 49.800 279.015,49.785 276.000,49.767 276.000 C 49.748 276.000,49.613 276.120,49.467 276.267 M78.500 299.094 C 79.545 299.176,81.255 299.176,82.300 299.094 C 83.345 299.012,82.490 298.944,80.400 298.944 C 78.310 298.944,77.455 299.012,78.500 299.094 M153.668 299.100 C 191.655 299.156,253.935 299.156,292.068 299.100 C 330.200 299.044,299.120 298.998,223.000 298.998 C 146.880 298.998,115.680 299.044,153.668 299.100 M72.565 306.000 C 72.565 309.850,72.625 311.425,72.698 309.500 C 72.771 307.575,72.771 304.425,72.698 302.500 C 72.625 300.575,72.565 302.150,72.565 306.000 " stroke="none" fill="#646464" fill-rule="evenodd"></path></g></svg>